<?xml version="1.0" standalone="no"?>
<!DOCTYPE svg PUBLIC "-//W3C//DTD SVG 1.1//EN" "http://www.w3.org/Graphics/SVG/1.1/DTD/svg11.dtd" >
<svg xmlns="http://www.w3.org/2000/svg">
<metadata>Generated by IcoMoon</metadata>
<defs>
<font id="ir-icons" horiz-adv-x="1024">
<font-face units-per-em="1024" ascent="960" descent="-64" />
<missing-glyph horiz-adv-x="1024" />
<glyph unicode="&#x20;" horiz-adv-x="512" d="" />
<glyph unicode="&#xe900;" glyph-name="auto" d="M138.384 117.538c-8.932 4.122-14.553 9.963-18.362 19.080-2.335 5.588-2.856 15.796-2.856 55.989v49.155l-9.529 10.406c-17.728 19.36-30.071 42.415-37.050 69.204-5.144 19.746-5.574 60.339-0.839 79.263 4.745 18.968 13.812 39.257 24.67 55.205l9.736 14.299-16.095 0.008c-17.381 0.008-25.053 2.87-30.673 11.447-2.576 3.932-17.695 71.898-17.706 79.595-0.009 5.687 5.552 15.544 10.763 19.082 4.353 2.955 10.685 3.442 55.359 4.259l50.444 0.923 9.703 23.063c28.753 68.343 54.195 104.378 86.416 122.397 57.553 32.186 153.447 51.035 259.634 51.035s202.080-18.85 259.634-51.035c32.222-18.019 57.664-54.054 86.416-122.396l9.703-23.063 50.444-0.923c44.674-0.817 51.006-1.304 55.359-4.259 5.211-3.538 10.771-13.395 10.763-19.082-0.012-9.015-15.186-75.842-18.16-79.979-5.854-8.144-14.325-11.064-32.108-11.067l-16.14-0.004 8.57-11.531c26.614-35.809 37.628-85.951 28.525-129.863-2.132-10.285-6.363-24.815-9.403-32.288-6.189-15.216-22.195-39.814-32.187-49.466l-6.582-6.357-0.043-48.992c-0.039-43.683-0.41-49.792-3.447-56.372-4.122-8.932-9.963-14.553-19.080-18.362-5.587-2.334-15.782-2.856-55.846-2.856-52.422 0-57.33 0.716-67.032 9.774-8.719 8.141-10.366 13.811-11.361 39.119l-0.943 23.985h-474.169l-0.943-23.985c-0.995-25.308-2.642-30.978-11.361-39.119-9.724-9.079-14.561-9.777-67.434-9.734-44.092 0.039-50.208 0.407-56.794 3.447zM266.889 286.808c31.882 10.008 53.020 44.498 47.622 77.704-9.359 57.571-78.167 80.474-119.941 39.923-15.924-15.458-24.129-40.191-20.294-61.174 8.079-44.207 50.076-69.806 92.613-56.453zM800.745 286.016c35.721 8.978 59.546 53.008 47.9 88.519-20.558 62.681-104.462 68.308-132.619 8.894-5.11-10.783-5.686-13.772-5.686-29.526 0-15.832 0.557-18.688 5.756-29.52 15.557-32.414 48.653-47.414 84.65-38.367zM803.513 547.771c0 7.74-29.416 73.715-41.48 93.032-11.115 17.798-17.565 23.416-37.855 32.974-52.114 24.55-115.774 35.172-211.254 35.247-99.535 0.079-167.858-11.775-219.557-38.092-13.581-6.914-19.447-12.213-29.031-26.23-11.582-16.939-43.847-88.383-43.847-97.091 0-1.199 100.249-1.828 291.512-1.828 206.919 0 291.513 0.576 291.513 1.986z" />
<glyph unicode="&#xe901;" glyph-name="fiber" d="M243.392 64.333c-20.428 4.007-49.84 16.48-69.607 29.519-43.928 28.976-72.128 73.562-64.861 102.548 3.588 14.311 46.116 80.833 82.905 129.679 79.124 105.057 176.353 198.503 275.378 264.663 26.163 17.48 38.159 19.095 49.12 6.611 9.55-10.877 7.017-28.094-5.276-35.866-5.718-3.615-5.776-3.757-5.052-12.42 1.705-20.404 18.487-49.448 41.949-72.598 19.436-19.178 28.528-23.98 43.072-22.749 16.908 1.43 26.628-6.196 27.782-21.8 0.765-10.342-2.638-16.452-13.248-23.788-90.246-62.4-166.83-135.769-232.047-222.306-17.343-23.012-46.985-67.57-57.272-86.090-9.342-16.82-14.643-23.539-22.462-28.475-12.371-7.809-32.070-10.518-50.379-6.926zM274.573 125.403c20.094 34.793 55.838 85.626 86.359 122.817 46.787 57.011 103.536 112.935 160.164 157.836 17.881 14.178 17.941 14.248 14.241 16.661-8.211 5.355-25.335 21.11-33.921 31.21-16.378 19.266-29.322 40.87-36.887 61.568l-4.157 11.373-15.738-11.976c-64.541-49.113-133.097-116.481-188.587-185.32-32.616-40.463-64.907-86.416-88.411-125.822l-11.45-19.196 3.239-6.35c7.016-13.752 32.972-37.594 55.494-50.974 13.816-8.208 34.8-15.6 44.364-15.628l7.307-0.023zM585.206 472.118c-22.636 14.994-48.657 49.602-56.793 75.537l-2.754 8.78 11.834 19.653c41.213 68.446 65.624 144.664 70.47 220.020 1.5 23.325 2.562 26.359 11.594 33.102 10.602 7.915 28.319 3.629 34.419-8.328 10.671-20.917-8.515-124.566-35.535-191.968-0.697-1.738 5.064 2.941 12.801 10.396 37.721 36.348 86.222 66.551 130.371 81.187 19.219 6.371 21.871 6.592 30.754 2.557 8.431-3.829 13.276-11.62 13.276-21.347 0-14.613-5.706-20.164-27.644-26.889-38.928-11.934-91.001-46.004-124.884-81.707-16.844-17.749-39.471-46.805-48.697-62.534-0.638-1.088 4.392 0.596 11.177 3.743 71.97 33.371 139.498 47.771 202.803 43.247 33.97-2.428 68.229-9.985 83.971-18.524 8.036-4.359 13.848-13.386 13.848-21.508 0-10.681-7.727-20.122-18.939-23.141-5.050-1.36-8.229-0.818-22.304 3.804-75.413 24.765-177.971 8.605-265.191-41.786-8.96-5.177-16.417-9.412-16.571-9.412s-3.757 2.303-8.006 5.117z" />
<glyph unicode="&#xe902;" glyph-name="gears" d="M67.228 584.82c5.383-18.455 12.852-36.251 22.3-52.948l-26.913-33.944c-8.788-11.095-7.799-26.913 2.087-36.91l46.357-46.357c9.996-9.996 25.815-10.874 36.91-2.086l33.724 26.694c17.356-9.997 35.811-17.796 55.035-23.288l5.053-43.391c1.648-14.061 13.512-24.606 27.572-24.606h65.581c14.061 0 25.925 10.547 27.572 24.606l4.833 41.853c20.652 5.383 40.425 13.402 58.99 23.837l32.625-25.815c11.095-8.788 26.913-7.799 36.91 2.087l46.357 46.357c9.996 9.996 10.875 25.815 2.087 36.91l-25.375 32.186c10.546 18.236 18.784 37.679 24.277 58.001l39.107 4.504c14.062 1.648 24.606 13.512 24.606 27.572v65.581c0 14.061-10.546 25.925-24.606 27.572l-38.557 4.504c-5.274 20.103-13.182 39.326-23.287 57.342l23.728 29.989c8.788 11.095 7.799 26.913-2.087 36.91l-46.247 46.247c-9.996 9.996-25.815 10.875-36.91 2.087l-29.11-23.069c-18.894 11.095-39.108 19.553-60.308 25.266l-4.394 37.679c-1.648 14.061-13.512 24.606-27.572 24.606h-65.581c-14.061 0-25.925-10.546-27.572-24.606l-4.394-37.679c-21.75-5.822-42.512-14.61-61.846-26.144l-30.209 23.947c-11.095 8.788-26.913 7.799-36.91-2.087l-46.357-46.357c-9.996-9.996-10.875-25.815-2.087-36.91l25.266-31.966c-10.106-18.235-17.796-37.679-22.849-57.891l-40.425-4.614c-14.061-1.648-24.606-13.512-24.606-27.572v-65.581c0-14.061 10.546-25.925 24.606-27.572l42.621-4.944zM304.834 762.228c59.758 0 108.422-48.664 108.422-108.422s-48.664-108.422-108.422-108.422c-59.757 0-108.422 48.664-108.422 108.422s48.664 108.422 108.422 108.422zM953.169 568.672l-34.603 29.22c-10.654 9.008-26.364 8.568-36.469-0.989l-19.114-17.906c-16.147 7.799-33.283 13.292-50.97 16.478l-5.38 26.364c-2.746 13.621-15.379 23.069-29.222 21.97l-45.148-3.845c-13.841-1.208-24.716-12.523-25.156-26.474l-0.878-26.803c-17.357-6.261-33.725-14.83-48.665-25.595l-22.848 15.159c-11.646 7.69-27.134 5.493-36.141-5.163l-29.22-34.822c-9.009-10.655-8.569-26.364 0.986-36.47l19.994-21.31c-6.922-15.599-11.865-31.967-14.72-48.773l-28.561-5.822c-13.621-2.746-23.069-15.379-21.97-29.221l3.845-45.148c1.208-13.841 12.523-24.716 26.474-25.156l30.868-0.988c5.605-14.72 12.963-28.672 21.86-41.743l-17.245-26.034c-7.69-11.644-5.493-27.133 5.162-36.141l34.603-29.22c10.657-9.008 26.364-8.568 36.471 0.989l22.629 21.201c14.83-6.921 30.427-12.084 46.466-15.159l6.263-30.978c2.746-13.621 15.379-23.069 29.22-21.97l45.148 3.845c13.841 1.208 24.716 12.522 25.156 26.474l0.989 30.32c16.478 5.822 32.075 13.731 46.466 23.507l24.937-16.478c11.644-7.69 27.132-5.493 36.141 5.163l29.22 34.603c9.007 10.655 8.567 26.364-0.989 36.47l-20.104 21.31c7.361 15.599 12.745 32.076 15.818 48.994l27.463 5.602c13.621 2.746 23.069 15.379 21.97 29.221l-3.845 45.148c-1.208 13.841-12.523 24.716-26.474 25.156l-27.572 0.879c-5.713 16.038-13.403 31.196-22.959 45.258l15.048 22.629c7.91 11.642 5.713 27.241-4.943 36.248zM783.013 307.669c-48.773-4.175-91.837 32.186-95.9 80.958-4.175 48.773 32.187 91.836 80.958 95.9 48.773 4.174 91.837-32.187 95.9-80.96 4.175-48.775-32.187-91.836-80.958-95.899zM225.193 186.174c-13.841-1.428-24.497-13.071-24.606-27.023l-0.33-27.792c-0.22-13.951 10.106-25.815 23.947-27.573l20.432-2.635c3.405-12.414 8.239-24.278 14.5-35.483l-13.182-16.258c-8.788-10.874-8.129-26.474 1.648-36.47l19.443-19.883c9.777-9.996 25.375-11.095 36.47-2.527l16.367 12.633c11.534-6.811 23.729-12.194 36.47-15.928l2.197-21.091c1.428-13.841 13.072-24.497 27.023-24.606l27.793-0.33c13.95-0.22 25.815 10.106 27.572 23.947l2.527 19.993c13.842 3.406 27.024 8.568 39.546 15.379l15.379-12.413c10.875-8.788 26.475-8.129 36.471 1.648l19.883 19.443c9.996 9.776 11.095 25.375 2.528 36.47l-11.756 15.27c7.25 12.084 12.854 24.936 16.698 38.448l18.235 1.867c13.841 1.428 24.495 13.072 24.606 27.023l0.328 27.793c0.221 13.95-10.105 25.815-23.946 27.572l-17.797 2.307c-3.405 13.402-8.457 26.364-15.048 38.448l11.095 13.621c8.788 10.875 8.129 26.474-1.648 36.47l-19.442 19.883c-9.777 9.997-25.378 11.096-36.471 2.527l-13.293-10.216c-12.522 7.58-25.925 13.402-39.984 17.356l-1.759 17.246c-1.428 13.842-13.071 24.497-27.023 24.606l-27.792 0.33c-13.951 0.22-25.815-10.106-27.573-23.947l-2.197-17.138c-14.499-3.734-28.45-9.447-41.412-16.916l-13.731 11.205c-10.875 8.788-26.475 8.128-36.471-1.648l-19.993-19.554c-9.996-9.776-11.095-25.375-2.527-36.469l11.754-15.16c-6.811-12.084-12.193-24.935-15.709-38.448l-19.223-1.977zM404.578 217.592c39.876-0.439 71.841-33.286 71.403-73.161-0.439-39.876-33.286-71.841-73.161-71.403s-71.841 33.285-71.403 73.161c0.44 39.875 33.286 71.841 73.161 71.403z" />
<glyph unicode="&#xe903;" glyph-name="microscope" d="M240.001 3.475c-12.853 3.91-20.465 10.58-25.997 22.782-3.135 6.914-3.562 11.426-3.595 37.98-0.040 33.451 1.111 38.61 10.948 48.978 12.103 12.757 8.197 12.343 117.171 12.431l97.643 0.079-19.242 10.058c-10.583 5.532-25.455 14.341-33.048 19.575-16.778 11.565-43.953 38.117-56.584 55.287l-9.3 12.641h-121.574v59.283h303.391v-59.283l-40.975-0.286 9.327-4.258c32.492-14.833 75.613-16.78 110.307-4.98 44.716 15.209 80.459 49.359 96.632 92.326 6.829 18.144 9.534 34.074 9.534 56.15 0 26.72-4.386 45.307-16.258 68.908l-9.024 17.939-21.887-0.636c-25.791-0.75-42.196 2.821-60.936 13.265-10.857 6.050-34.155 27.161-38.004 34.434-1.011 1.91-2.163 3.087-2.56 2.615-2.588-3.069-43.586-71.471-43.537-72.639 0.035-0.798 6.611-5.539 14.619-10.535s14.37-9.704 14.139-10.462c-0.231-0.758-9.924-16.927-21.54-35.932-13.767-22.524-21.915-34.249-23.402-33.678-2.682 1.029-182.326 110.852-184.591 112.847-1.324 1.166 35.982 64.946 41.43 70.833 1.507 1.628 5.439-0.059 17.136-7.363l15.181-9.475 9.55 15.438c5.252 8.491 45.738 74.575 89.969 146.853 55.274 90.325 82.63 133.45 87.489 137.924 10.731 9.88 27.65 13 40.771 7.517l6.074-2.538 4.024 6.461c2.213 3.554 14.088 22.938 26.388 43.077s22.495 36.799 22.654 37.022c0.159 0.223 13.289-7.573 29.177-17.326l28.886-17.732-16.070-26.265c-8.839-14.446-20.516-33.446-25.95-42.223s-9.88-16.683-9.88-17.568c0-0.886 2.038-3.513 4.529-5.837 8.064-7.527 11.9-17.044 11.971-29.701l0.066-11.525-33.765-55.414 13.381-3.109c21.672-5.035 37.439-13.846 53.659-29.986 11.153-11.098 15.6-17.116 21.304-28.826 7.433-15.26 12.551-35.516 12.551-49.672 0-9.495-4.312-31.376-7.854-39.853-2.481-5.937-2.399-6.203 5.485-17.959 17.214-25.67 30.561-57.658 37.579-90.068 3.156-14.575 3.853-23.4 3.879-49.15 0.035-33.848-2.161-49.662-10.618-76.5-20.256-64.281-69.624-121.264-131.345-151.604l-14.821-7.286 88.053-0.872c96.409-0.955 92.376-0.503 103.596-11.608 10.074-9.97 11.403-15.768 11.445-49.911 0.027-22.151-0.633-32.608-2.313-36.616-3.812-9.096-11.718-17.159-21.117-21.536l-8.789-4.093-275.493 0.133c-151.521 0.073-277.46 0.731-279.864 1.462z" />
<glyph unicode="&#xe904;" glyph-name="painting" d="M136.733 83.089c-19.389 6.148-38.57 20.876-47.882 36.765-16.968 28.953-15.836 58.868 4.232 111.837 13.412 35.402 16.559 48.042 16.501 66.29-0.055 17.749-2.676 29.861-14.592 67.452-15.831 49.939-16.956 55.425-16.956 82.652s1.125 32.713 16.956 82.652c11.916 37.59 14.537 49.702 14.592 67.452 0.057 18.248-3.089 30.888-16.501 66.29-16.304 43.034-19.849 68.909-12.623 92.127 7.405 23.791 22.823 41.482 45.397 52.087 11.095 5.213 15.273 6.096 31.775 6.717 22.55 0.849 42.471-2.248 85.502-13.292 59.669-15.315 67.841-16.914 92.152-18.036 28.379-1.31 42.715 1.009 84.552 13.679 42.899 12.991 58.705 16.353 82.204 17.485 28.465 1.372 47.413-1.422 100.201-14.776 56.812-14.371 71.524-17.026 94.342-17.026 22.567 0 37.056 2.812 78.996 15.33 46.401 13.85 65.793 17.438 89.819 16.619 17.646-0.601 21.426-1.374 32.725-6.691 30.057-14.143 48.977-43.447 48.977-75.859 0-18.321-4.743-37.943-17.171-71.035-13.597-36.204-15.526-44.121-15.503-63.619 0.023-17.728 2.628-29.804 14.562-67.452 15.831-49.939 16.956-55.425 16.956-82.652s-1.125-32.713-16.956-82.652c-11.916-37.59-14.537-49.702-14.592-67.452-0.057-18.248 3.089-30.888 16.501-66.29 16.304-43.034 19.849-68.909 12.623-92.127-7.403-23.786-22.813-41.47-45.397-52.096-11.299-5.316-15.079-6.089-32.725-6.691-24.026-0.819-43.417 2.769-89.819 16.619-41.94 12.518-56.429 15.33-78.996 15.33-22.747 0-38.158-2.753-91.139-16.283-48.702-12.437-69.53-16.003-93.456-16.003s-44.753 3.566-93.456 16.003c-52.981 13.529-68.392 16.283-91.139 16.283-22.567 0-37.056-2.812-78.996-15.33-17.415-5.198-39.967-11.143-50.115-13.211-20.999-4.279-49.893-4.794-61.555-1.096zM211.785 120.102c10.973 3.017 30.559 8.596 43.526 12.397 41.782 12.25 68.955 15.041 102.165 10.491 8.175-1.12 34.528-7.036 58.564-13.147 57.527-14.626 71.494-17.118 95.953-17.118 24.479 0 38.48 2.5 95.952 17.135 81.676 20.798 102.251 20.475 179.714-2.818 36.649-11.020 53.383-14.317 72.681-14.317 18.866 0 26.617 2.722 38.226 13.423 18.526 17.077 21.062 41.975 8.018 78.729-23.416 65.977-22.666 63.267-23.634 85.465-1.104 25.325 1.515 39.716 14.976 82.262 22.474 71.038 22.474 79.919 0 150.957-13.46 42.546-16.080 56.938-14.976 82.262 0.804 18.443 1.87 23.649 8.945 43.701 4.418 12.52 11.047 31.314 14.732 41.764 9.054 25.676 10.579 46.912 4.4 61.275-4.809 11.18-17.061 23.499-27.921 28.075-9.371 3.949-33.555 3.878-53.081-0.156-8.061-1.665-27.125-6.777-42.365-11.36-42.476-12.773-58.186-16.144-80.911-17.363-28.247-1.516-46.163 1.184-102.603 15.462-60.707 15.357-71.174 16.994-100.207 15.674-24.065-1.094-32.343-2.925-87.758-19.412-42.073-12.517-71.869-15.187-106.543-9.548-9.405 1.53-39.331 8.441-66.502 15.359-43.414 11.054-52.165 12.696-72.202 13.547-26.359 1.119-32.16-0.515-45.514-12.824-18.526-17.077-21.062-41.975-8.018-78.729 23.415-65.977 22.666-63.267 23.634-85.465 1.104-25.325-1.515-39.716-14.976-82.262-13.328-42.128-16.854-57.936-16.837-75.479 0.016-18.119 2.32-28.47 16.901-76.002 14.118-46.021 16.117-57.082 14.912-82.514-1.013-21.376-0.943-21.125-23.35-83.717-9.479-26.48-11.076-47.495-4.729-62.249 4.47-10.39 17.205-23.74 26.164-27.426 14.639-6.023 41.821-4.555 72.662 3.925zM177.584 448.085v266.957h668.818v-533.914h-668.818zM814.1 315.287v103.758l-9.556 12.009c-14.032 17.634-35.843 37.235-48.126 43.25-27.123 13.281-49.475 9.8-78.765-12.266-12.043-9.073-53.653-45.954-91.658-81.242-109.601-101.764-181.834-137.222-269.934-132.506-29.711 1.59-77.321 11.076-101.244 20.172l-4.933 1.875v-58.808h604.216zM371.534 283.76c57.672 11.753 108.823 42.965 184.031 112.296 113.853 104.955 128.639 115.3 167.407 117.133 15.851 0.75 19.864 0.252 31.987-3.963 17.648-6.137 31.201-14.376 46.779-28.436l12.362-11.157v215.020l-603.266-0.962-0.487-142.979c-0.268-78.638-0.197-142.979 0.157-142.979s8.945 5.55 19.091 12.334c56.452 37.745 105.423 46.149 154.028 26.435 18.689-7.58 105.509-49.107 105.54-50.481 0.048-2.173-24.118-20.589-27.019-20.589-1.517 0-23.199 9.778-48.182 21.73s-50.678 23.067-57.099 24.701c-39.52 10.057-82.786-4.986-136.054-47.306l-10.925-8.68v-52.363l15.675-5.041c55.988-18.006 105.384-22.985 145.974-14.713zM453.612 451.959c-43.907 11.826-74.624 51.682-74.624 96.828 0 62.947 58.739 110.69 120.085 97.605 33.741-7.197 62.786-33.053 74.054-65.926 6.103-17.805 6.121-45.502 0.043-63.236-16.881-49.231-70.475-78.491-119.556-65.271zM506.666 487.472c13.738 6.295 26.998 19.511 33.504 33.391 4.32 9.217 5.073 13.362 5.073 27.924s-0.753 18.707-5.073 27.924c-6.472 13.807-19.697 27.032-33.504 33.504-9.223 4.323-13.359 5.073-27.964 5.073-15.537 0-18.327-0.584-29.826-6.245-14.045-6.914-25.094-18.010-32.16-32.295-3.744-7.569-4.436-11.913-4.454-27.962-0.023-17.127 0.506-20.031 5.335-29.451 8.806-17.178 21.558-28.491 39.445-34.991 12.766-4.639 35.851-3.185 49.624 3.127z" />
<glyph unicode="&#xe905;" glyph-name="calendar" d="M189.179 40.969c-44.744 4.573-79.83 39.738-84.313 84.502-0.41 4.093-0.518 86.91-0.386 295.095 0.166 260.868 0.264 289.813 0.999 293.543 3.738 18.974 10.888 33.815 22.804 47.329 11.709 13.279 28.739 23.787 45.691 28.191 11.66 3.030 11.484 3.018 50.741 3.229l36.311 0.195 0.191-35.851c0.208-39.052 0.144-38.132 3.33-47.49 4.781-14.040 15.604-26.966 28.723-34.302 15.19-8.495 34.573-10.176 50.969-4.422 20.113 7.059 34.611 22.809 40.372 43.858l1.355 4.952 0.546 72.933 250.611 0.261v-32.091c0-19.403 0.219-34.058 0.555-37.066 0.811-7.277 2.687-14.014 5.6-20.113 3.42-7.159 7.136-12.463 12.472-17.798 24.467-24.467 63.973-24.467 88.44 0 8.781 8.781 14.372 19.097 17.378 32.064 0.795 3.432 0.923 7.982 1.109 39.441l0.21 35.561h32.721c19.239 0 35.049-0.227 38.371-0.55 28.746-2.8 54.611-18.427 70.19-42.408 8.174-12.582 13.35-27.459 14.826-42.608 0.766-7.861 0.774-573.685 0.008-581.252-1.687-16.674-7.637-32.849-16.908-45.961-4.514-6.385-16.023-17.888-22.379-22.368-13.18-9.291-29.516-15.33-45.738-16.91-6.992-0.681-638.13-0.645-644.8 0.035zM833.164 104.127c9.276 2.887 16.369 8.713 20.068 16.483 1.138 2.39 2.383 5.625 2.768 7.189 0.582 2.368 0.699 39.935 0.699 224.231v221.386h-689.503v-444.323l1.411-4.138c2.648-7.765 8.174-14.293 15.179-17.929 4.39-2.279 6.434-2.95 10.656-3.501 1.8-0.235 145.609-0.394 319.575-0.355 296.979 0.067 316.476 0.126 319.147 0.957zM483.797 187.314c-12.343 1.281-25.963 4.237-38.783 8.419l-6.776 2.21-0.272 34.27 4.792-2.095c11.254-4.92 22.531-8.308 34.518-10.369 8.584-1.476 26.152-1.593 33.501-0.223 38.447 7.166 58.4 36.547 63.25 93.139 0.29 3.385 0.442 6.24 0.338 6.345s-1.521-1.549-3.148-3.674c-8.75-11.424-22.313-20.797-36.25-25.051-9.298-2.838-13.421-3.397-25.087-3.399-15.294-0.008-26.32 1.875-37.859 6.447-28.134 11.148-45.791 34.991-50.936 68.781-1.284 8.433-1.285 28.468-0.002 36.675 3.373 21.571 10.968 37.147 24.877 51.020 7.417 7.398 13.186 11.646 21.348 15.72 25.16 12.558 60.874 13.176 86.021 1.49 29.122-13.534 48.459-45.34 55.287-90.939 4.471-29.86 4.101-63.446-0.98-88.968-3.896-19.567-10.952-37.425-20.54-51.984-17.65-26.801-41.444-42.348-72.044-47.074-6.467-0.999-24.62-1.429-31.254-0.741zM525.655 317.363c21.79 4.621 36.223 21.23 40.912 47.081 1.175 6.475 1.338 24.679 0.279 31.035-3.435 20.609-12.468 35.024-27.213 43.426-12.234 6.972-31.193 8.474-45.661 3.617-16.363-5.493-28.606-19.456-33.449-38.151-2.166-8.36-2.612-12.463-2.596-23.892 0.023-15.74 1.868-24.888 7.203-35.691 7.772-15.737 20.468-25.147 37.766-27.992 5.385-0.886 17.309-0.588 22.759 0.567zM316.012 699.861c-2.076 0.563-5.219 1.788-6.983 2.722-4.491 2.377-10.531 8.505-12.89 13.078-3.673 7.12-3.508 4.227-3.502 61.628 0.006 43.655 0.123 52.091 0.762 54.496 3.046 11.459 12.414 20.501 23.885 23.053 13.507 3.005 28.17-4.026 34.291-16.444 3.739-7.585 3.626-5.678 3.626-61.18s0.113-53.595-3.626-61.18c-3.595-7.293-9.957-12.704-18.456-15.697-4.473-1.575-12.257-1.792-17.108-0.477zM693.074 699.643c-11.274 2.447-20.895 12.037-23.592 23.518-0.68 2.895-0.79 10.403-0.79 54.053s0.11 51.158 0.79 54.053c3.297 14.029 16.178 24.293 30.489 24.293 14.041 0 26.777-9.9 30.261-23.523 0.998-3.903 1.033-5.756 1.033-54.823s-0.035-50.921-1.033-54.823c-1.423-5.563-4.129-10.184-8.489-14.496-7.562-7.479-18.166-10.531-28.668-8.252z" />
<glyph unicode="&#xe906;" glyph-name="hand" d="M491.113-12.086c-92.545 13.485-167.032 60.847-226.282 143.879-77.53 108.648-72.947 246.129 10.642 319.251l28.701 25.107-3.634 186.446c-3.954 202.827-3.316 208.436 26.852 236.272 12.635 11.659 20.873 14.068 48.102 14.068 27.28 0 35.411-2.387 47.911-14.068 27.653-25.839 29.976-36.475 34.204-156.644 2.195-62.4 4.585-113.454 5.311-113.454s8.573 3.783 17.438 8.406c33.619 17.533 74.161 7.811 94.735-22.718 10.598-15.727 12.454-16.42 25.491-9.528 8.234 4.353 25.212 6.505 40.972 5.191 30.676-2.557 50.835-17.652 65.27-48.876 8.723-18.868 10.373-19.706 39.333-19.972 27.49-0.252 31.95-2.156 49.237-21.019l19.008-20.742-0.023-57.76c-0.027-76.361-9.981-204.981-19.849-256.555-9.943-51.967-31.543-95.587-66.277-133.842-52.312-57.614-131.589-78.824-237.14-63.443zM603.762 21.537c82.814 15.165 141.576 78.383 159.076 171.138 8.494 45.020 17.772 171.881 17.788 243.24 0.012 54.735-0.654 57.985-13.656 66.504-7.664 5.022-21.879 8.169-32.356 7.163-17.955-1.723-18.753-2.821-20.383-28.073-1.946-30.141-13.049-43.916-26.438-32.804-6.28 5.212-8.441 19.136-8.441 54.402 0 42.82-1.334 48.73-13.812 61.209-8.706 8.706-20.241 13.812-31.205 13.812-19.884 0-45.016-21.463-45.016-38.445 0-5.951-3.798-13.973-8.441-17.826-13.891-11.529-25.322 2.92-25.322 32.008 0 39.576-12.82 57.783-40.796 57.939-24.039 0.134-35.985-16.605-43.454-60.889-7.302-43.29-17.927-58.94-30.861-45.455-5.768 6.014-9.162 49.178-13.899 176.769-5.513 148.509-7.504 170.503-16.559 182.879-15.006 20.51-46.615 22.156-65.366 3.404-16.766-16.766-15.987 13.007-8.091-309.25 5.376-219.41 5.092-248.122-2.531-255.745-7.065-7.064-10.133-7.303-17.31-1.347-6.903 5.729-8.723 20.037-8.723 68.578v61.338l-14.298-9.369c-7.864-5.153-21.158-21.037-29.542-35.299-14.197-24.15-15.244-30.392-15.244-90.933 0-63.873 0.37-65.751 21.287-108.074 27.116-54.865 83.2-114.030 130.643-137.82 29.293-14.689 46.16-19.681 106.914-31.645 22.694-4.469 63.485-3.368 96.033 2.593z" />
<glyph unicode="&#xe907;" glyph-name="map" d="M843.079 61.817c-6.45 4.42-51.435 36.765-99.966 71.879-58.615 42.41-90.109 64.081-93.811 64.553-3.065 0.391-54.507-1.482-114.315-4.161s-110.537-4.205-112.731-3.392c-2.194 0.814-27.583 21.542-56.42 46.063-48.785 41.483-52.895 44.557-59.102 44.199-3.669-0.211-61.54-3.068-128.603-6.349-133.274-6.519-130.83-6.593-136.368 4.116-4.642 8.976-3.471 17.656 3.339 24.756 4.599 4.795 266.299 229.113 280.222 240.195 4.236 3.371 151.146 37.924 155.192 36.5 1.9-0.669 29.417-16.56 61.149-35.315s59.002-34.1 60.601-34.1c1.599 0 13.367 3.344 26.15 7.431s24.049 7.431 25.034 7.431c2.929 0 26.982-31.85 25.281-33.475-0.86-0.822-16.193-6.039-34.073-11.594l-32.509-10.099-20.899-34.119c-11.494-18.765-20.899-34.571-20.899-35.125s3.638-0.716 8.084-0.363l8.084 0.643 1.251-10.645c0.688-5.855 0.945-10.95 0.572-11.324s-8.408-1.718-17.854-2.988l-17.175-2.309-43.146-70.591c-24.278-39.721-42.179-70.834-40.935-71.148 1.216-0.307 39.516 1.157 85.112 3.251s89.398 3.808 97.34 3.808h14.439l90.973-65.756c50.035-36.166 91.222-65.523 91.527-65.238s6.619 21.255 14.032 46.601l13.478 46.084-4.137 19.619c-2.276 10.79-5.389 23.641-6.918 28.557-2.056 6.608-2.214 9.109-0.606 9.594 1.196 0.36 6.129 1.924 10.962 3.475l8.787 2.82 2.189-7.305c1.204-4.018 2.692-7.305 3.307-7.305s12.32 38.244 26.012 84.987c13.691 46.743 25.175 85.823 25.518 86.845s-12.121 8.643-27.699 16.937c-15.578 8.294-42.731 22.773-60.339 32.177l-32.015 17.098 11.581 14.958c6.369 8.227 12.518 15.321 13.664 15.765 2.604 1.009 131.128-67.154 135.286-71.749 7.233-7.992 6.949-9.155-47.183-193.301-28.682-97.573-53.49-181.029-55.128-185.458-3.29-8.897-11.381-15.15-19.616-15.161-2.849-0.004-10.025 3.443-16.719 8.029zM493.259 354.081c37.803 61.95 70.602 115.759 72.886 119.576l4.153 6.941-97.473 57.837-127.601-30.329 1.281-47.501-5.805 0.001c-3.193 0-8.417-0.522-11.61-1.16-5.69-1.138-5.807-1.019-5.912 6.037-0.059 3.959-0.686 10.234-1.393 13.945l-1.286 6.747-100.893-86.355c-55.491-47.495-100.632-86.577-100.313-86.848s46.411 1.861 102.427 4.739c60.219 3.094 103.498 4.583 105.886 3.645 2.221-0.873 24.52-19.172 49.551-40.664s45.93-39.115 46.441-39.161c0.511-0.047 31.859 50.602 69.662 112.552zM437.065 363.456c-6.025 0.786-6.037 0.81-6.037 11.534v10.746l28.298 1.088c15.564 0.598 28.405 0.934 28.536 0.746s0.775-5.109 1.431-10.937l1.193-10.596-6.044-0.927c-9.385-1.439-40.654-2.53-47.376-1.654zM374.369 379.008c-11.573 5.82-27.488 20.014-33.11 29.531l-3.245 5.494 17.78 13.1 4.62-6.020c9.68-12.612 17.037-18.235 34.979-26.732 0.323-0.153-1.767-4.936-4.645-10.628l-5.233-10.349zM839.594 300.359c-3.418 4.759-11.612 14.375-18.21 21.369l-11.996 12.716 7.178 7.351c3.948 4.043 7.845 7.351 8.659 7.351 4.71 0 39.984-40.895 38.018-44.076-0.515-0.834-4.649-4.182-9.187-7.44l-8.25-5.925zM768.191 357.888c-6.546 3.546-35.373 13.551-39.046 13.551-4.294 0-4.601 2.768-1.511 13.629 3.462 12.169 1.917 12.059 29.411 2.078 32.942-11.96 31.328-10.391 24.708-24.017-4.503-9.268-5.452-9.635-13.562-5.241zM657.4 380.311c-30.686 0.579-29.382-0.159-29.437 16.67l-0.027 7.895 17.183-0.012c9.451-0.004 22.826-0.546 29.722-1.197l12.539-1.184-0.027-9.484c-0.015-5.216-0.643-10.32-1.393-11.342-0.833-1.134-11.964-1.658-28.561-1.345zM742.251 473.536c-1.813 2.003-5.255 7.871-7.65 13.040-6.871 14.83-28.219 44.99-58.729 82.972-15.475 19.264-30.804 39.205-34.065 44.314-28.463 44.59-35.335 92.24-19.68 136.478 7.317 20.678 15.794 34.072 31.82 50.277 38.133 38.56 94.054 51.587 144.624 33.692 21.508-7.611 34.408-15.931 52.33-33.753 13.112-13.038 17.408-18.866 24.651-33.438 12.353-24.851 15.141-36.945 14.992-65.018-0.104-19.689-0.89-25.764-5.168-39.939-7.96-26.381-20.729-48.576-45.955-79.879-41.197-51.12-63.266-82.045-70.36-98.596-2.083-4.859-5.22-9.923-6.972-11.254-4.931-3.746-16.006-3.13-19.837 1.104zM770.45 545.601c9.416 13.022 26.021 34.544 36.899 47.827 23.906 29.19 32.978 42.263 39.86 57.44 18.142 40.011 15.732 79.986-6.816 113.058-4.724 6.929-12.453 15.912-17.175 19.964-11.050 9.48-30.129 19.508-43.979 23.115-13.973 3.64-39.704 3.64-53.677 0-28.314-7.375-54.65-28.718-67.763-54.917-9.541-19.062-11.94-31.376-10.819-55.526 1.415-30.485 12.111-55.415 36.679-85.487 22.63-27.7 50.882-64.351 59.068-76.628 4.598-6.897 8.865-12.536 9.482-12.531s8.825 10.663 18.241 23.685zM745.899 672.43c-22.001 3.271-38.75 25.732-35.181 47.179 6.229 37.428 52.88 49.258 75.791 19.22 22.528-29.536-3.4-71.93-40.61-66.399z" />
<glyph unicode="&#xe908;" glyph-name="user" d="M470.618 7.741c-4.879 0.407-20.848 1.729-35.486 2.938-113.348 9.364-203.306 40.043-228.369 77.881-9.577 14.459-10.838 21.749-9.353 54.083 2.56 55.745 9.887 90.746 25.793 123.217 17.419 35.56 39.23 58.229 98.87 102.759l37.759 28.193 20.422-10.665c22.425-11.711 52.6-22.468 78.535-27.997 23.666-5.045 82.794-5.045 106.459 0 25.934 5.528 56.109 16.286 78.535 27.997l20.422 10.665 37.759-28.193c59.64-44.53 81.451-67.199 98.87-102.759 15.906-32.471 23.233-67.472 25.793-123.217 0.866-18.858 0.568-31.31-0.877-36.589-12.683-46.357-93.827-80.27-226.316-94.586-26.186-2.83-110.367-5.266-128.817-3.728zM479.756 387.233c-95.332 13.213-176.466 79.698-206.21 168.98-9.995 30.001-12.779 47.705-12.779 81.269 0 33.696 2.771 51.206 12.95 81.816 23.726 71.354 85.269 132.749 157.034 156.658 30.001 9.995 47.705 12.779 81.269 12.779s51.268-2.784 81.269-12.779c71.765-23.909 133.308-85.304 157.034-156.658 10.178-30.61 12.95-48.12 12.95-81.816 0-21.788-1.012-35.367-3.525-47.315-11.241-53.44-35.010-96.899-73.117-133.689-35.8-34.563-77.104-56.285-126.31-66.428-18.974-3.911-61.854-5.411-80.565-2.817z" />
<glyph unicode="&#xe909;" glyph-name="question-mark" d="M509.026 247.696c-16.936 5.498-32.494 23.791-43.783 51.48-16.126 39.554-18.5 90.108-6.25 133.078 10.621 37.255 27.039 56.668 77.861 92.068 31.626 22.029 46.071 33.206 56.949 44.070 23.658 23.626 34.478 48.905 36.001 84.112 1.927 44.546-14.54 82.357-52.247 119.971-21.246 21.194-43.693 36.033-66.069 43.676-10.431 3.563-29.507 3.949-40.262 0.813-10.142-2.956-30.92-13.807-43.434-22.68-14.744-10.455-38.945-34.989-48.762-49.432-8.964-13.188-19.369-33.572-20.666-40.485-0.461-2.459 0.191-10.872 1.45-18.695 2.902-18.039 2.295-22.963-4.491-36.421-6.866-13.618-11.385-20.226-19.116-27.957-23.808-23.808-51.044-13.876-71.284 25.997-10.53 20.744-15.245 40.002-15.245 62.265 0 24.837 4.589 42.731 17.622 68.713 36.588 72.939 108.916 131.785 181.776 147.895 13.161 2.91 52.917 4.112 68.425 2.069 66.725-8.79 134.121-54.564 179.202-121.708 43.385-64.619 55.676-148.098 33.215-225.604-13.133-45.319-26.306-60.72-89.751-104.929-40.654-28.328-59.864-46.977-70.442-68.385-8.507-17.216-8.894-26.749-2.581-63.491 5.087-29.605 4.393-36.223-5.944-56.728-12.599-24.99-26.806-38.408-42.42-40.062-3.573-0.378-7.963-0.212-9.755 0.369zM508.961 92.597c-15.421 3.363-31.169 16.326-38.813 31.949-5.878 12.012-6.081 22.967-0.641 34.654 8.282 17.795 26.796 32.010 44.016 33.795 11.082 1.149 25.84-5.497 36.829-16.586 11.246-11.347 16.95-24.246 16.115-36.439-1.134-16.547-15.237-35.195-33.069-43.727-8.951-4.283-16.412-5.396-24.436-3.646z" />
<glyph unicode="&#xe90a;" glyph-name="download" d="M462.794-29.651c-35.949 2.735-98.784 15.109-130.371 25.674-40.486 13.541-78.198 33.402-95.75 50.426-21.244 20.605-28.145 35.381-28.145 60.26 0 55.732 42.717 86.473 147.602 106.22l29.511 5.556 23.042-22.935c12.673-12.614 23.042-23.653 23.042-24.53s-13.063-2.343-29.029-3.258c-46.51-2.666-83.021-13.031-99.698-28.303-26.97-24.698-27.741-55.546-1.88-75.27 10.78-8.222 56.031-26.841 86.931-35.769 66.814-19.304 160.062-22.174 229.133-7.054 44.994 9.849 100.564 32.068 117.508 46.983 21.544 18.964 21.565 39.88 0.064 63.794-19.76 21.978-52.175 32.893-106.36 35.813-14.59 0.786-27.013 2.216-27.606 3.176s9.181 11.958 21.721 24.44l22.8 22.695 24.603-4.194c57.341-9.774 105.604-27.060 126.31-45.241 5.387-4.729 13.738-16.783 18.986-27.401 17.606-35.623 11.33-64.62-20.56-94.995-12.291-11.707-23.439-18.79-49.415-31.398-39.926-19.377-47.366-21.955-97.118-33.642-58.537-13.751-109.698-16.801-185.321-11.047zM377.538 257.658c-75.916 75.926-137.452 138.047-136.746 138.047 1.252 0 156.539-44.19 167.396-47.636l5.474-1.737v540.876l101.954-101.859 101.891 101.891v-270.28c0-148.654 0.305-270.28 0.678-270.28s38.964 10.951 85.758 24.336c46.794 13.385 85.341 24.075 85.66 23.756s-61.209-62.36-136.728-137.87l-137.308-137.29z" />
<glyph unicode="&#xe90b;" glyph-name="cross-fat" d="M116.323 53.495c-32.119 32.149-36.456 37.169-34.080 39.441 1.498 1.432 93.956 82.375 205.462 179.872s202.986 177.942 203.287 178.766c0.301 0.823-92.072 82.547-205.274 181.61l-205.822 180.113 75.107 75.248 3.686-4.478c2.027-2.463 83.267-95.396 180.533-206.518 167.060-190.859 177.016-201.859 179.915-198.776 1.688 1.795 81.668 93.252 177.733 203.238s176.020 201.418 177.677 203.183c2.83 3.014 5.285 0.934 40.473-34.285l37.46-37.493-205.791-180.086c-113.185-99.047-205.532-180.843-205.215-181.769s92.224-81.829 204.238-179.785c112.013-97.956 204.266-178.66 205.005-179.342s-15.545-18.114-36.188-38.738l-37.532-37.499-180.037 205.735c-99.020 113.154-180.603 205.664-181.296 205.577s-81.969-92.563-180.614-205.504c-98.645-112.94-179.933-205.346-180.64-205.346s-17.846 16.577-38.088 36.837z" />
<glyph unicode="&#xe90c;" glyph-name="cross-slim" d="M117.47 54.578l-10.238 10.485 192.165 192.178c105.691 105.698 192.165 193.345 192.165 194.772s-86.494 89.093-192.208 194.815l-192.208 192.221 22.142 22.142 192.221-192.208c105.722-105.714 193.388-192.208 194.815-192.208s89.093 86.494 194.815 192.208l192.221 192.208 22.142-22.142-192.208-192.221c-105.714-105.722-192.208-193.388-192.208-194.815s86.494-89.093 192.208-194.815l192.208-192.221-22.142-22.142-192.221 192.208c-105.722 105.714-193.394 192.208-194.828 192.208s-88.811-86.21-194.172-191.579c-105.361-105.368-192.21-191.579-192.998-191.579s-6.040 4.718-11.671 10.485z" />
<glyph unicode="&#xe90d;" glyph-name="downarrow" d="M130.957 738.864l22.838 22.838 178.497-268.005c98.173-147.403 179.822-269.445 181.442-271.204s82.901 116.843 180.625 263.561c97.724 146.718 179.158 268.354 180.964 270.301 2.027 2.186 12.315-5.41 26.879-19.845l23.595-23.386-409.733-614.612-203.972 305.945c-112.185 168.27-203.972 307.21-203.972 308.756s10.277 13.089 22.838 25.65z" />
<glyph unicode="&#xe90e;" glyph-name="leftarrow" d="M854.47 66.957l22.838 22.838-268.005 178.497c-147.403 98.173-269.445 179.822-271.204 181.442s116.843 82.901 263.561 180.625c146.718 97.724 268.354 179.158 270.301 180.964 2.186 2.027-5.41 12.315-19.845 26.879l-23.386 23.595-614.612-409.733 305.945-203.972c168.27-112.185 307.21-203.972 308.756-203.972s13.089 10.277 25.65 22.838z" />
<glyph unicode="&#xe90f;" glyph-name="mail-close" d="M157.789 239.408c0.681 0.611 71.614 51.713 157.629 113.56s157.014 112.938 157.776 113.534c0.836 0.654 9.047-3.836 20.707-11.324 10.627-6.824 20.145-12.092 21.151-11.706s10.019 5.976 20.029 12.421l18.2 11.719 158.662-114.186c87.264-62.802 158.906-114.398 159.205-114.657s-160.364-0.471-357.027-0.471c-196.988 0-357.014 0.498-356.332 1.11zM154.466 457.156v216.251l158.020-101.588c86.911-55.873 158.020-102.142 158.020-102.819 0-1.027-314.151-228.096-315.571-228.096-0.258 0-0.469 97.313-0.469 216.251zM722.489 348.851c-82.181 59.259-153.338 110.56-158.127 114.003l-8.707 6.261 154.217 99.154c84.82 54.535 156.417 100.548 159.105 102.252l4.887 3.098v-216.357c0-118.996-0.44-216.311-0.977-216.255s-68.217 48.586-150.398 107.845zM348.65 569.651l-164.815 104.586 165.165 0.331c90.841 0.182 239.407 0.182 330.148 0l164.983-0.331-164.8-104.586c-90.64-57.522-165.040-104.586-165.333-104.586s-74.699 47.064-165.347 104.586z" />
<glyph unicode="&#xe910;" glyph-name="mail-open" d="M156.584 362.172v216.251l158.020-101.588c86.911-55.873 158.020-102.142 158.020-102.819 0-1.027-314.151-228.096-315.571-228.096-0.258 0-0.469 97.313-0.469 216.251zM724.607 253.867c-82.181 59.259-153.338 110.56-158.127 114.003l-8.707 6.26 154.217 99.154c84.82 54.535 156.417 100.548 159.105 102.252l4.887 3.098v-216.357c0-118.996-0.44-216.311-0.977-216.255s-68.216 48.586-150.398 107.845zM163.882 147.342c188.313 135.712 320.517 230.514 334.323 239.741l17.762 11.87 22.646-15.231c20.465-13.764 327.559-234.103 332.109-238.288 1.6-1.471-55.751-1.755-355.007-1.755h-356.916zM184.144 564.926c-11.317 7.057-21.475 13.775-22.573 14.93-2.274 2.393 348.634 228.635 354.628 228.64 2.691 0.003 344.297-217.112 356.564-226.621 0.426-0.33-9.893-7.332-22.932-15.56l-23.707-14.959-12.256 7.66c-6.741 4.213-75.198 48.336-152.128 98.050s-141.485 91.009-143.456 91.766c-1.976 0.758-72.417-43.084-157.036-97.739-84.399-54.513-154.145-99.088-154.99-99.056s-10.797 5.831-22.114 12.888z" />
<glyph unicode="&#xe911;" glyph-name="rightarrow" d="M236.957 66.957l-22.838 22.838 268.005 178.497c147.403 98.173 269.445 179.822 271.204 181.442s-116.843 82.901-263.561 180.625c-146.718 97.724-268.354 179.158-270.301 180.964-2.186 2.027 5.41 12.315 19.845 26.879l23.386 23.595 614.612-409.733-305.945-203.972c-168.27-112.185-307.21-203.972-308.756-203.972s-13.089 10.277-25.65 22.838z" />
<glyph unicode="&#xe912;" glyph-name="tick" d="M388.827 302.373c-67.815 81.687-123.811 150.053-124.435 151.926s9.301 13.746 22.056 26.388l23.19 22.984 101.245-127.005c55.685-69.853 102.486-127.092 104.004-127.198s60.422 115.122 130.898 256.063l128.139 256.257 47.842-48.306-7.475-13.698c-4.111-7.534-72.831-133.545-152.711-280.024s-146.184-266.232-147.344-266.117c-1.16 0.115-57.593 67.044-125.409 148.731z" />
<glyph unicode="&#xe913;" glyph-name="uparrow" d="M130.957 121.351l22.838-22.838 178.497 268.005c98.173 147.403 179.822 269.445 181.442 271.204s82.901-116.843 180.625-263.561c97.724-146.718 179.158-268.354 180.964-270.301 2.027-2.186 12.315 5.41 26.879 19.845l23.595 23.386-409.733 614.612-203.972-305.945c-112.185-168.27-203.972-307.21-203.972-308.756s10.277-13.089 22.838-25.65z" />
<glyph unicode="&#xe914;" glyph-name="alarm-clock" d="M924.128 381.62c0 135.587-65.827 256.078-167.189 331.233l7.99 14.271 123.948-69.452c3.108-1.742 6.479-2.567 9.804-2.567 7.036 0 13.866 3.7 17.551 10.276 23.802 42.478 29.638 91.681 16.431 138.545-11.369 40.35-35.709 74.784-69.364 98.777l15.332 27.384c5.421 9.684 1.964 21.932-7.72 27.352s-21.929 1.967-27.352-7.717l-15.327-27.374c-84.369 35.768-184.236 3.009-230.053-78.753-2.604-4.649-3.256-10.145-1.811-15.273s4.869-9.475 9.52-12.082l123.974-69.466-6.447-11.514c-61.853 37.119-134.183 58.493-211.419 58.493s-149.563-21.374-211.417-58.49l-6.452 11.511 123.977 69.468c9.684 5.426 13.135 17.671 7.709 27.355-23.802 42.478-62.719 73.142-109.583 86.349-40.356 11.372-82.434 8.588-120.47-7.591l-15.319 27.36c-5.421 9.686-17.666 13.14-27.352 7.72-9.684-5.421-13.14-17.669-7.72-27.352l15.329-27.384c-33.652-23.992-57.992-58.423-69.361-98.777-13.207-46.864-7.371-96.070 16.431-138.545 3.684-6.575 10.514-10.276 17.551-10.276 3.325 0 6.699 0.828 9.804 2.567l123.945 69.45 7.996-14.266c-101.365-75.152-167.192-195.645-167.192-331.235 0-121.14 52.545-230.232 136.029-305.705l-25.26-115.523c-2.371-10.844 4.496-21.554 15.34-23.925 1.447-0.316 2.888-0.469 4.311-0.469 9.239 0 17.559 6.412 19.614 15.806l20.948 95.81c67.847-49.12 151.166-78.126 241.143-78.126s173.298 29.005 241.146 78.128l20.948-95.813c2.055-9.397 10.372-15.806 19.611-15.806 1.423 0 2.867 0.153 4.311 0.469 10.841 2.371 17.711 13.081 15.34 23.925l-25.26 115.526c83.49 75.476 136.032 184.566 136.032 305.705zM826.667 878.447c33.11-18.553 57.017-48.89 67.311-85.422 8.454-30.005 6.897-61.234-4.207-89.782l-245.465 137.541c42.207 55.294 119.958 72.627 182.36 37.663zM134.231 703.241c-11.106 28.547-12.663 59.779-4.207 89.782 10.295 36.532 34.198 66.869 67.311 85.422 21.916 12.28 45.723 18.108 69.219 18.108 43.41 0 85.757-19.895 113.141-55.771l-245.465-137.541zM140.065 381.62c0 205.088 166.849 371.937 371.937 371.937s371.934-166.849 371.934-371.937-166.852-371.937-371.937-371.937-371.934 166.852-371.934 371.937zM511.999 671.46c-159.818 0-289.84-130.022-289.84-289.84s130.022-289.84 289.84-289.84c159.821 0 289.84 130.022 289.84 289.84 0.003 159.818-130.019 289.84-289.84 289.84zM511.999 131.972c-137.656 0-249.648 111.992-249.648 249.648s111.992 249.648 249.648 249.648c137.659 0 249.648-111.992 249.648-249.648 0.003-137.656-111.989-249.648-249.648-249.648zM532.106 450.681v97.163c0 11.098-8.998 20.096-20.096 20.096s-20.096-8.998-20.096-20.096v-97.158c-23.537-6.857-42.116-25.434-48.978-48.97h-45.393c-11.098 0-20.096-8.998-20.096-20.096s8.998-20.096 20.096-20.096h45.393c8.719-29.916 36.371-51.845 69.064-51.845 39.67 0 71.941 32.272 71.941 71.941 0 32.69-21.924 60.337-51.835 69.061zM511.999 349.871c-17.505 0-31.749 14.241-31.749 31.749s14.241 31.749 31.749 31.749c17.508 0 31.749-14.241 31.749-31.749s-14.241-31.749-31.749-31.749z" />
<glyph unicode="&#xe915;" glyph-name="baggage" d="M1003.016 631.397h-130.098v286.636h5.456c11.541 0 20.984 9.443 20.984 20.984s-9.443 20.984-20.984 20.984h-226.623c-11.541 0-20.984-9.443-20.984-20.984s9.443-20.984 20.984-20.984h3.567v-286.636h-130.098c-11.541 0-20.984-9.443-20.984-20.984v-254.741h-84.564v79.108c0 11.541-9.443 20.984-20.984 20.984h-151.082c-11.541 0-20.984-9.443-20.984-20.984v-79.108h-205.639c-11.541 0-20.984-9.443-20.984-20.984v-377.705c0-11.541 9.443-20.984 20.984-20.984h982.033c11.541 0 20.984 9.443 20.984 20.984v653.43c0 11.541-9.443 20.984-20.984 20.984zM268.59 413.797h109.115v-58.125h-109.115v58.125zM126.531-22.033h-84.564v335.738h84.564v-335.738zM479.685-22.033h-311.187v335.738h311.187v-335.738zM697.285 918.033h133.666v-286.636h-133.666v286.636zM604.328-22.033v0h-82.675v335.738h82.675v-335.738zM982.033-22.033h-335.738v58.125h256.63c11.541 0 20.984 9.443 20.984 20.984v202.072c0 11.541-9.443 20.984-20.984 20.984h-256.63v54.557c0 11.541-9.443 20.984-20.984 20.984h-79.108v58.964c1.679-0.42 3.567-0.839 5.456-0.839h430.374v-435.83zM646.295 78.059v160.105h235.646v-160.105h-235.646zM982.033 455.764h-430.374c-1.889 0-3.777-0.21-5.456-0.839v134.505h435.83v-133.666z" />
<glyph unicode="&#xe916;" glyph-name="bed" d="M999.298 79.076h-25.501v230.661c0 51.663-42.032 93.694-93.697 93.694h-491.783c-11.097 44.903-51.704 78.302-99.983 78.302-56.798 0-103.010-46.206-103.010-103.004 0-6.826 0.722-13.572 2.039-20.176l-61.769 4.435c-1.751 0.124-3.519 0.189-5.262 0.189-39.328 0-70.134-30.963-70.134-70.488v-213.614h-25.498c-13.644 0-24.702-11.058-24.702-24.702s11.058-24.702 24.702-24.702h50.038c0.055 0 0.107-0.008 0.159-0.008h874.196c0.055 0 0.104 0.008 0.159 0.008h50.043c13.644 0 24.702 11.058 24.702 24.702s-11.058 24.702-24.702 24.702zM924.394 309.738v-136.091h-533.063v180.385h488.769c24.425 0 44.293-19.871 44.293-44.293zM234.726 378.733c0 29.555 24.049 53.6 53.606 53.6 29.552 0 53.592-24.046 53.592-53.6v-31.275l-101.503 7.29c-3.719 7.411-5.695 15.587-5.695 23.986zM99.601 292.691c0 12.598 9.823 21.919 22.454 21.021l219.872-15.787v-29.703h-242.326v24.469zM99.601 218.818h242.326v-69.874c0-13.644 11.058-24.702 24.702-24.702h557.764v-45.166h-824.793v139.742zM363.149 546.193c-1.37-7.916 1.194-16.004 6.875-21.683 5.679-5.681 13.764-8.248 21.683-6.87l70.667 12.249c22.871-10.438 48.032-15.925 73.291-15.925 0.003 0 0.005 0 0.008 0 47.054 0 91.293 18.326 124.569 51.602s51.605 77.523 51.605 124.583c0 47.063-18.329 91.307-51.605 124.583-33.279 33.279-77.523 51.605-124.586 51.605s-91.309-18.326-124.588-51.605c-52.497-52.497-66.344-131.027-35.681-197.879l-12.238-70.661zM446.005 779.797c23.947 23.947 55.785 37.135 89.652 37.135 33.864 0 65.702-13.188 89.649-37.135 23.95-23.944 37.135-55.782 37.135-89.649 0-33.864-13.188-65.702-37.135-89.652-23.947-23.947-55.78-37.133-89.638-37.13-20.269 0-40.429 4.896-58.305 14.154-3.53 1.828-7.427 2.767-11.363 2.767-1.408 0-2.819-0.121-4.219-0.362l-43.969-7.622 7.616 43.972c0.919 5.316 0.074 10.784-2.404 15.576-25.498 49.247-16.265 108.702 22.981 147.945zM480.469 667.032l35.62 38.34h-17.522c-13.644 0-24.702 11.058-24.702 24.702s11.058 24.702 24.702 24.702h74.185c0.231 0 0.456-0.027 0.683-0.036 0.445-0.011 0.887-0.030 1.328-0.066 0.387-0.030 0.769-0.074 1.15-0.124 0.414-0.052 0.826-0.115 1.238-0.189 0.395-0.071 0.785-0.151 1.175-0.242 0.392-0.091 0.779-0.192 1.169-0.302s0.774-0.228 1.156-0.357c0.382-0.129 0.758-0.266 1.134-0.414 0.371-0.145 0.738-0.299 1.101-0.461 0.373-0.167 0.741-0.346 1.106-0.532 0.354-0.181 0.7-0.368 1.043-0.565 0.351-0.2 0.697-0.412 1.040-0.631 0.346-0.222 0.686-0.456 1.021-0.694 0.316-0.228 0.629-0.458 0.939-0.7 0.346-0.274 0.681-0.557 1.010-0.848 0.173-0.151 0.357-0.285 0.527-0.442 0.11-0.102 0.2-0.214 0.31-0.318 0.313-0.302 0.612-0.618 0.911-0.936 0.269-0.285 0.538-0.574 0.79-0.87 0.255-0.299 0.491-0.609 0.73-0.922 0.261-0.338 0.521-0.672 0.763-1.018 0.206-0.299 0.395-0.609 0.59-0.919 0.233-0.371 0.469-0.741 0.681-1.12 0.181-0.324 0.34-0.661 0.508-0.996 0.187-0.376 0.379-0.752 0.546-1.136 0.159-0.368 0.296-0.747 0.439-1.123 0.137-0.368 0.283-0.733 0.403-1.103 0.129-0.395 0.233-0.801 0.343-1.205 0.099-0.371 0.203-0.741 0.285-1.114 0.088-0.395 0.151-0.799 0.22-1.199 0.069-0.403 0.137-0.807 0.184-1.21 0.044-0.376 0.069-0.755 0.096-1.134 0.033-0.447 0.060-0.892 0.069-1.342 0.003-0.143 0.022-0.285 0.022-0.428 0-0.225-0.027-0.445-0.033-0.667-0.011-0.45-0.030-0.9-0.069-1.35-0.030-0.382-0.074-0.76-0.121-1.139-0.052-0.417-0.115-0.832-0.189-1.243-0.071-0.395-0.151-0.785-0.242-1.172-0.091-0.39-0.189-0.777-0.299-1.164-0.11-0.392-0.231-0.779-0.36-1.164-0.126-0.376-0.263-0.749-0.409-1.12-0.148-0.376-0.305-0.749-0.469-1.117-0.165-0.365-0.34-0.725-0.521-1.084-0.184-0.362-0.376-0.716-0.579-1.065-0.198-0.343-0.401-0.681-0.618-1.016-0.228-0.357-0.467-0.705-0.714-1.048-0.22-0.307-0.445-0.609-0.678-0.908-0.28-0.357-0.574-0.7-0.876-1.043-0.148-0.167-0.274-0.343-0.428-0.508l-35.62-38.34h17.522c13.644 0 24.702-11.058 24.702-24.702s-11.058-24.702-24.702-24.702h-74.185c0 0-0.003 0-0.003 0h-0.003c-0.799 0-1.595 0.044-2.388 0.121-0.296 0.027-0.585 0.082-0.878 0.121-0.489 0.066-0.98 0.129-1.466 0.225-0.34 0.066-0.672 0.154-1.007 0.233-0.431 0.102-0.862 0.203-1.287 0.332-0.34 0.102-0.672 0.22-1.005 0.335-0.412 0.143-0.823 0.285-1.23 0.45-0.324 0.132-0.64 0.277-0.955 0.42-0.401 0.181-0.799 0.368-1.188 0.574-0.31 0.162-0.615 0.338-0.917 0.513-0.373 0.217-0.744 0.436-1.112 0.675-0.31 0.2-0.609 0.414-0.911 0.629-0.335 0.239-0.667 0.483-0.991 0.741-0.313 0.247-0.612 0.508-0.911 0.769-0.184 0.162-0.379 0.305-0.56 0.472-0.11 0.102-0.2 0.214-0.31 0.318-0.313 0.302-0.612 0.618-0.911 0.936-0.269 0.285-0.538 0.574-0.79 0.87-0.255 0.299-0.491 0.609-0.73 0.922-0.261 0.338-0.521 0.672-0.763 1.018-0.206 0.299-0.395 0.609-0.59 0.919-0.233 0.371-0.469 0.741-0.681 1.12-0.181 0.324-0.34 0.659-0.505 0.994-0.189 0.379-0.382 0.755-0.549 1.142-0.159 0.365-0.294 0.741-0.436 1.114-0.14 0.368-0.285 0.736-0.406 1.109-0.129 0.395-0.233 0.801-0.343 1.205-0.099 0.371-0.203 0.741-0.285 1.114-0.088 0.395-0.151 0.799-0.22 1.199-0.069 0.403-0.137 0.807-0.184 1.21-0.044 0.376-0.069 0.755-0.096 1.134-0.033 0.447-0.060 0.892-0.069 1.342-0.003 0.143-0.022 0.285-0.022 0.428 0 0.225 0.027 0.445 0.033 0.667 0.011 0.45 0.030 0.9 0.069 1.35 0.030 0.382 0.074 0.76 0.121 1.139 0.052 0.417 0.115 0.832 0.189 1.243 0.071 0.395 0.151 0.785 0.242 1.172 0.091 0.39 0.189 0.777 0.299 1.164 0.11 0.392 0.231 0.779 0.36 1.164 0.126 0.376 0.263 0.749 0.412 1.123 0.148 0.376 0.302 0.747 0.469 1.114 0.165 0.365 0.34 0.727 0.524 1.087 0.184 0.362 0.376 0.716 0.579 1.065 0.198 0.343 0.401 0.681 0.618 1.016 0.228 0.357 0.467 0.705 0.714 1.048 0.22 0.307 0.445 0.609 0.678 0.908 0.28 0.357 0.574 0.7 0.876 1.043 0.134 0.159 0.261 0.335 0.414 0.5z" />
<glyph unicode="&#xe917;" glyph-name="diamond" d="M821.376 940.088h-618.751l-202.624-294.073 512-690.103 512 690.103c0 0-202.624 294.073-202.624 294.073zM934.949 669.062h-208.955l79.771 187.69c0 0 129.183-187.69 129.183-187.69zM769.813 879.921l-82.476-193.959-129.859 193.959h212.335zM648.005 669.062h-252.097l117.322 201.149 134.776-201.149zM470.025 879.921l-110.131-188.981-102.695 188.981h212.826zM220.263 859.579l103.555-190.517h-234.767c0 0 131.211 190.517 131.211 190.517zM89.113 626.84h253.45l119.842-502.966c0 0-373.291 502.966-373.291 502.966zM385.89 626.84h279.507l-151.676-536.644c0 0-127.831 536.644-127.831 536.644zM570.323 135.674l138.832 491.166h225.671l-364.503-491.166z" />
<glyph unicode="&#xe918;" glyph-name="dinner" d="M1009.977 829.222c-8.442 3.17-17.962 0.788-23.904-5.988-3.271-3.722-80.098-92.73-85.5-223.39-3.43-82.812-3.361-135.222 26.424-164.657 13.059-12.915 30.423-20.020 53.697-21.779v-326.361c0-11.962 9.693-21.654 21.654-21.654 11.959 0 21.654 9.693 21.654 21.654v347.66c0 0.113 0 0.219 0 0.332v373.917c-0.003 9.017-5.584 17.087-14.026 20.266zM980.691 456.907c-10.668 1.224-18.349 4.236-23.257 9.080-16.963 16.772-16.27 67.495-13.596 132.069 2.284 55.253 19.512 102.651 36.853 137.061v-278.21zM521.155 792.372c-189.883 0-344.366-154.486-344.366-344.377 0-189.878 154.486-344.363 344.366-344.363 189.889 0 344.369 154.486 344.369 344.363 0 189.892-154.48 344.377-344.369 344.377zM521.155 146.94c-166 0-301.057 135.057-301.057 301.054 0 166.011 135.057 301.069 301.057 301.069 166.006 0 301.060-135.057 301.060-301.069 0-165.997-135.054-301.054-301.060-301.054zM521.155 691.823c-134.439 0-243.814-109.378-243.814-243.82s109.378-243.82 243.814-243.82 243.814 109.378 243.814 243.82-109.375 243.82-243.814 243.82zM521.155 247.492c-110.562 0-200.505 89.95-200.505 200.511s89.944 200.511 200.505 200.511 200.505-89.95 200.505-200.511-89.944-200.511-200.505-200.511zM150.458 825.226c-11.962 0-21.654-9.693-21.654-21.654v-102.446h-21.097v102.446c0 11.962-9.693 21.654-21.654 21.654-11.959 0-21.654-9.693-21.654-21.654v-102.446h-21.089v102.446c0 11.962-9.693 21.654-21.654 21.654-11.959 0-21.654-9.693-21.654-21.654v-124.1c0-75.531 26.511-135.329 64.4-151.913v-435.124c0-11.962 9.695-21.654 21.654-21.654 11.962 0 21.654 9.693 21.654 21.654v435.121c37.895 16.584 64.406 76.382 64.406 151.913v124.103c-0.003 11.959-9.695 21.654-21.657 21.654zM86.055 566.25c-15.141 0-37.179 35.747-41.854 91.564h83.707c-4.674-55.816-26.713-91.564-41.854-91.564z" />
<glyph unicode="&#xe919;" glyph-name="sandwich" d="M437.002 899.174c-98.621-12.524-188.447-47.442-257.413-99.717-72.919-55.572-117.944-128.266-127.386-205.578-4.608-37.335-1.976-49.644 11.858-58.204 7.025-4.393 9.882-4.393 445.645-4.393 484.526 0 446.966-1.096 455.967 13.834 5.489 8.786 5.704 30.095 1.096 57.764-10.762 61.942-38.216 112.896-87.859 162.314-69.622 69.622-161.219 112.896-279.378 132.004-30.31 5.048-129.372 6.144-162.529 1.976zM557.138 840.745c88.3-7.905 163.635-32.942 228.424-75.991 29.655-19.763 67.645-56.443 84.122-81.265 18.668-28.334 36.68-71.383 36.68-88.3v-4.608h-793.334l1.536 9.226c7.465 44.37 41.728 100.157 84.122 136.837 88.515 76.872 224.696 116.408 358.451 104.1zM299.725 735.764c-6.154-5.489-7.25-7.905-7.25-16.691s1.096-11.203 7.25-16.691c5.274-4.833 9.226-6.369 15.811-6.369s10.537 1.536 15.811 6.369c6.154 5.489 7.25 7.905 7.25 16.691s-1.096 11.203-7.25 16.691c-5.274 4.833-9.226 6.369-15.811 6.369s-10.537-1.536-15.811-6.369zM695.071 735.764c-6.154-5.489-7.25-7.905-7.25-16.691s1.096-11.203 7.25-16.691c5.274-4.833 9.226-6.369 15.811-6.369s10.537 1.536 15.811 6.369c6.154 5.489 7.25 7.905 7.25 16.691s-1.096 11.203-7.25 16.691c-5.274 4.833-9.226 6.369-15.811 6.369s-10.537-1.536-15.811-6.369zM497.398 713.8c-6.154-5.489-7.25-7.905-7.25-16.691s1.096-11.203 7.25-16.691c5.274-4.833 9.226-6.369 15.811-6.369s10.537 1.536 15.811 6.369c6.144 5.489 7.25 7.905 7.25 16.691s-1.096 11.203-7.25 16.691c-5.274 4.833-9.226 6.369-15.811 6.369s-10.537-1.536-15.811-6.369zM150.804 511.293c-31.631-2.857-62.597-16.906-84.777-38.216-7.69-7.25-14.5-15.811-15.155-19.333-3.953-15.596 5.929-32.072 21.524-36.239 11.418-3.072 21.309 0.215 33.823 10.977 23.501 20.204 53.596 27.894 81.92 20.644 17.787-4.608 28.549-10.762 46.561-27.238 29.43-26.798 59.965-39.752 97.3-41.513 44.37-2.202 79.514 11.418 115.753 44.81 26.132 23.941 57.324 32.287 87.634 23.501 16.476-4.823 28.119-11.858 46.572-28.549 18.893-17.132 48.097-32.502 70.728-37.12 47.882-10.107 97.516 3.738 134.861 37.56 20.869 18.668 38.441 27.238 60.18 28.774 22.62 1.761 42.609-4.393 61.942-19.108 18.668-14.060 21.084-15.37 31.191-15.37 21.965 0 36.239 24.156 25.917 43.93-8.131 15.596-46.787 39.752-75.776 47.442-18.668 4.833-53.596 5.048-72.479 0.225-23.081-5.939-48.118-19.558-66.12-35.809-9.001-8.346-22.62-17.787-30.525-21.524-13.179-6.369-16.036-6.81-37.335-6.81-21.309 0-24.156 0.44-37.56 6.81-7.905 3.953-21.084 12.964-29.43 20.429-27.453 25.037-55.132 38.001-88.955 41.728-44.585 5.048-85.217-8.561-120.801-40.417-22.856-20.429-39.547-28.109-64.143-29.215-30.525-1.536-43.264 3.953-77.752 33.167-32.952 27.894-72.479 40.417-115.098 36.465zM24.74 351.396c-3.297-2.202-8.131-7.025-10.322-10.322-3.953-5.929-4.178-11.643-4.178-81.050s0.215-75.121 4.178-81.050c6.369-9.667 15.37-14.5 27.013-14.5 9.667 0 10.547-0.44 11.643-5.929 0.655-3.512 4.393-15.811 7.905-27.453 19.548-62.157 68.966-110.039 134.861-130.683l19.763-6.144h293.222c280.699 0 293.878 0.215 308.593 4.178 72.919 19.763 128.266 75.336 146.719 146.934l4.833 19.108h13.834c12.524 0 14.275 0.655 21.965 7.465l8.131 7.465 0.655 76.431c0.655 82.586 0.44 84.562-10.977 94.228l-6.595 5.489h-482.335c-468.92 0-482.765-0.215-488.909-4.168zM954.245 260.68l-0.655-35.799h-882.954l-0.655 32.942c-0.215 18.012 0 34.048 0.44 35.584 0.881 2.417 83.466 2.857 442.788 2.857h441.477l-0.44-35.584zM906.363 162.284c0-6.154-12.298-33.167-21.084-46.346-12.739-19.108-30.085-34.703-51.62-45.906-33.823-17.572-12.739-16.476-323.748-16.476-258.734 0-277.627 0.215-291.021 3.953-43.274 11.858-76.657 39.311-94.884 77.527-3.512 7.465-7.025 17.132-7.69 21.524l-1.321 7.905h395.786c256.113 0.020 395.581-0.645 395.581-2.181z" />
<glyph unicode="&#xe91a;" glyph-name="clock" d="M512.001 960c-282.31 0-511.999-229.691-511.999-511.999 0-282.31 229.688-511.999 511.999-511.999 282.327 0 511.996 229.688 511.996 511.999 0 282.308-229.669 511.999-511.996 511.999zM512.001 20.362c-235.805 0-427.637 191.829-427.637 427.637 0 235.8 191.831 427.637 427.637 427.637s427.631-191.837 427.631-427.637c0-235.805-191.829-427.637-427.631-427.637zM554.181 464.762v289.954c0 23.294-18.885 42.182-42.18 42.182-23.292 0-42.177-18.888-42.177-42.182v-306.715c0-13.098 6.090-24.634 15.437-32.378 0.395-0.476 0.663-1.010 1.075-1.478l158.178-179.605c8.342-9.447 19.979-14.289 31.672-14.289 9.885 0 19.841 3.454 27.85 10.524 17.488 15.407 19.175 42.055 3.784 59.543l-153.639 174.443z" />
<glyph unicode="&#xe91b;" glyph-name="money" d="M1017.139 605.338l-347.797 347.8c-4.397 4.394-10.353 6.861-16.565 6.861s-12.168-2.467-16.565-6.861l-629.35-629.35c-9.148-9.148-9.148-23.979 0-33.124l347.797-347.8c4.394-4.394 10.353-6.861 16.565-6.861s12.168 2.467 16.565 6.861l629.353 629.35c9.144 9.144 9.144 23.976-0.003 33.124zM371.223-7.45l-314.674 314.677 596.227 596.224 314.674-314.674-596.227-596.227zM512 552.624c-27.945 0-54.22-10.881-73.983-30.644-40.788-40.794-40.788-107.166 0-147.96 19.76-19.763 46.034-30.644 73.983-30.644s54.22 10.881 73.98 30.644c40.791 40.791 40.791 107.166 0 147.96-19.76 19.763-46.034 30.644-73.98 30.644zM552.853 407.147c-10.912-10.912-25.422-16.921-40.853-16.921s-29.941 6.009-40.853 16.921c-22.527 22.527-22.527 59.183 0 81.71 10.912 10.912 25.422 16.924 40.853 16.924s29.941-6.009 40.853-16.924c22.527-22.53 22.527-59.183 0-81.71zM595.358 792.165c-6.212 0-12.168-2.467-16.565-6.861l-404.097-404.1c-9.148-9.148-9.148-23.979 0-33.124 22.53-22.527 22.527-59.183 0-81.71-9.148-9.148-9.148-23.979 0-33.124l122.544-122.547c4.394-4.394 10.35-6.861 16.565-6.861 6.212 0 12.168 2.467 16.565 6.861 10.912 10.912 25.422 16.921 40.853 16.921s29.941-6.009 40.853-16.921c4.394-4.394 10.35-6.861 16.565-6.861s12.168 2.467 16.565 6.861l404.1 404.1c9.148 9.148 9.148 23.979 0 33.124-22.53 22.527-22.527 59.183 0 81.71 9.148 9.148 9.148 23.979 0 33.124l-122.544 122.547c-4.394 4.394-10.35 6.861-16.565 6.861-6.212 0-12.168-2.467-16.565-6.861-10.912-10.912-25.422-16.921-40.853-16.921-15.434 0-29.944 6.009-40.856 16.921-4.394 4.394-10.35 6.861-16.565 6.861zM708.343 737.467l93.14-93.14c-21.203-33.839-21.203-77.259 0-111.095l-374.693-374.696c-16.49 10.378-35.6 15.931-55.566 15.931s-39.076-5.553-55.566-15.931l-93.14 93.14c21.203 33.839 21.203 77.259 0 111.095l374.693 374.696c16.49-10.378 35.6-15.931 55.566-15.931s39.076 5.553 55.566 15.931z" />
<glyph unicode="&#xe91c;" glyph-name="telephone" d="M997.085 179.315l-155.956 155.956c-35.83 35.833-94.134 35.83-129.963 0l-20.6-20.6c-15.917-15.917-37.076-24.684-59.587-24.684s-43.67 8.767-59.587 24.684l-192.738 192.741c-15.917 15.917-24.684 37.076-24.684 59.587s8.767 43.67 24.684 59.587l20.6 20.6c35.833 35.83 35.833 94.134 0 129.963l-155.963 155.956c-35.83 35.833-94.134 35.833-129.963 0-131.754-131.75-150.887-338.905-45.501-492.563 117.884-171.884 264.812-318.808 436.693-436.693 66.399-45.541 142.77-67.832 218.749-67.829 99.846 0.004 198.998 38.509 273.815 113.326 17.358 17.358 26.919 40.436 26.919 64.984s-9.557 47.626-26.915 64.984zM160.114 886.326c4.86 4.856 11.322 7.532 18.196 7.532s13.336-2.676 18.196-7.536l155.956-155.956c4.86-4.86 7.536-11.322 7.536-18.196s-2.676-13.333-7.536-18.196l-9.282-9.282-192.142 192.142c2.959 3.209 5.97 6.381 9.076 9.491zM541.942 58.417c-165.135 113.26-306.292 254.417-419.552 419.552-71.946 104.901-73.828 239.841-11.282 345.216l191.319-191.319c-9.569-19.997-14.634-42.042-14.634-64.866 0-40.186 15.649-77.963 44.064-106.375l192.738-192.738c28.415-28.415 66.193-44.064 106.375-44.064 22.824 0 44.869 5.062 64.866 14.634l191.322-191.322c-105.371-62.546-240.312-60.668-345.216 11.282zM950.297 96.139c-3.11-3.11-6.282-6.12-9.488-9.076l-192.142 192.142 9.282 9.282c4.86 4.86 11.322 7.536 18.196 7.536s13.336-2.676 18.196-7.536l155.956-155.956c10.032-10.032 10.032-26.36 0-36.392z" />
<glyph unicode="&#xe91d;" glyph-name="museum" d="M991.697 31.546c17.839 0 32.303 14.464 32.303 32.303s-14.464 32.303-32.303 32.303h-20.997v74.297c0 17.839-14.464 32.303-32.303 32.303h-20.994v361.793h50.093c0.021 0.003 0.038 0.003 0.062 0 17.842 0 32.303 14.464 32.303 32.303 0 13.047-7.733 24.29-18.87 29.389l-454.163 234.617c-9.299 4.803-20.352 4.803-29.655 0l-455.501-235.306c-13.24-6.84-20.084-21.849-16.56-36.33 3.517-14.484 16.487-24.676 31.389-24.676h50.097v-361.793h-20.997c-17.839 0-32.303-14.464-32.303-32.303v-74.297h-20.997c-17.839 0-32.303-14.464-32.303-32.303s14.464-32.303 32.303-32.303h959.395zM852.799 202.75h-41.998v361.793h41.998v-361.793zM597.606 202.75v361.793h148.59v-361.793h-148.59zM277.807 202.75v361.793h148.587v-361.793h-148.587zM490.999 564.543h42.001v-361.793h-42.001v361.793zM189.416 629.148l322.588 166.643 322.584-166.643h-645.172zM171.205 564.543h41.998v-361.793h-41.998v361.793zM906.095 138.145v-41.994h-788.19v41.994h788.19z" />
<glyph unicode="&#xe91e;" glyph-name="city" d="M0-64h512v1024h-512v-1024zM320 832h128v-128h-128v128zM320 576h128v-128h-128v128zM320 320h128v-128h-128v128zM64 832h128v-128h-128v128zM64 576h128v-128h-128v128zM64 320h128v-128h-128v128zM576 640h448v-64h-448zM576-64h128v256h192v-256h128v576h-448z" />
<glyph unicode="&#xe91f;" glyph-name="stadium" d="M944.56 687.627l0.005 1.592-8.586 0.027-0.212-67.645c-20.408 16.896-43.628 30.83-65.964 41.938-57.444 28.568-120.197 46.046-183.622 56.737l0.101 32.154c31.099 26.826 58.994-12.374 79.61 26.35-48.432-0.636-37.8 29.009-79.44 26.454l0.005 1.592-8.586 0.027-0.269-85.142c-15.489 2.462-31.003 4.53-46.482 6.262-86.412 9.671-174.634 8.919-260.79-2.987-7.958-1.099-15.933-2.317-23.918-3.606l-0.269 85.473-8.586-0.027 0.005-1.592c-41.642 2.556-31.008-27.092-79.44-26.454 20.61-38.724 48.511 0.476 79.605-26.35l0.106-32.452c-71.566-12.177-143.343-32.612-205.99-69.121-14.459-8.426-29.534-18.575-43.591-30.276l-0.217 68.667-8.586-0.027 0.005-1.592c-41.654 2.558-31.018-27.092-79.454-26.456 20.62-38.722 48.513 0.473 79.61-26.353l0.071-21.69c-30.372-27.651-53.881-63.011-51.936-104.498 2.248-48.032 30.281-85.384 66.257-113.977v-68.581c-13.419 11.46-23.735 23.279-30.542 34.421-3.758 6.132-6.62 11.95-8.737 17.197-2.041 5.267-3.48 9.922-4.318 13.781-0.853 3.852-1.424 6.868-1.656 8.914-0.274 2.053-0.414 3.113-0.414 3.113s-0.081-1.067-0.237-3.132c-0.177-2.073-0.318-5.17-0.145-9.222 0.384-8.039 1.772-20.26 7.879-34.542 2.984-7.137 6.979-14.792 12.135-22.614 5.121-7.847 11.539-15.726 18.912-23.619 2.262-2.405 4.66-4.793 7.12-7.172v-62.398c-13.419 11.46-23.735 23.277-30.542 34.419-3.758 6.132-6.62 11.95-8.737 17.197-2.041 5.264-3.48 9.922-4.318 13.781-0.853 3.852-1.424 6.871-1.656 8.914-0.274 2.053-0.414 3.113-0.414 3.113s-0.081-1.067-0.237-3.132c-0.177-2.073-0.318-5.17-0.145-9.222 0.384-8.039 1.772-20.258 7.884-34.542 2.984-7.135 6.979-14.789 12.135-22.614 5.121-7.847 11.539-15.723 18.912-23.617 2.262-2.403 4.655-4.788 7.115-7.167l1.824-1.728c13.308-12.586 29.3-24.743 47.466-36.013 11.211-6.962 23.26-13.555 35.966-19.846 12.717-6.267 26.16-12.061 40.134-17.589 28.004-10.883 58.285-20.236 90.089-27.646 15.883-3.79 32.169-6.987 48.708-9.806 0.818-0.14 1.641-0.264 2.46-0.402l4.727-15.748 19.972 5.994-35.432 118.008c108.952 27.673 215.232 27.673 324.178 0l-35.432-118.006 19.972-5.999 4.727 15.745c0.818 0.138 1.646 0.264 2.46 0.404 16.544 2.819 32.827 6.018 48.713 9.806 31.797 7.411 62.082 16.763 90.089 27.646 13.969 5.528 27.417 11.322 40.134 17.589 12.702 6.292 24.756 12.884 35.961 19.846 18.166 11.27 34.155 23.427 47.471 36.013l1.824 1.728c2.46 2.376 4.853 4.764 7.11 7.167 14.863 15.696 25.246 31.861 31.089 46.211 6.011 14.326 7.561 26.495 7.857 34.559 0.155 4.061 0.030 7.177-0.155 9.224-0.155 2.065-0.237 3.132-0.237 3.132s-0.145-1.060-0.419-3.113c-0.237-2.070-0.794-5.069-1.666-8.912-0.858-3.854-2.314-8.505-4.333-13.776-2.085-5.254-4.959-11.070-8.751-17.182-3.832-6.090-8.544-12.505-14.353-18.895-4.747-5.173-10.126-10.407-16.145-15.548v62.403c2.46 2.378 4.857 4.766 7.115 7.172 14.858 15.696 25.246 31.863 31.084 46.214 6.011 14.326 7.561 26.495 7.857 34.559 0.155 4.061 0.030 7.179-0.155 9.224-0.155 2.065-0.237 3.132-0.237 3.132s-0.145-1.060-0.419-3.113c-0.237-2.070-0.794-5.069-1.666-8.912-0.858-3.857-2.314-8.505-4.328-13.776-2.085-5.254-4.959-11.070-8.751-17.182-3.837-6.090-8.544-12.505-14.353-18.895-4.747-5.175-10.131-10.41-16.15-15.551v67.667c36.366 28.778 64.384 66.442 67.201 115.118-0.15 42.758-22.459 77.655-52.875 105.304l0.062 20.662c31.099 26.826 58.994-12.369 79.61 26.353-48.434-0.638-37.797 29.012-79.437 26.451zM690.117 677.7c40.922-7.746 81.187-18.693 119.874-33.766 34.503-13.444 76.918-32.913 106.815-61.328l-164.281-102.024c-32.538 25.069-84.731 44.558-147.338 54.406l84.93 142.712zM566.654 692.228c32.563-1.792 65.294-5.032 97.736-10.114l-85.482-143.634c-21.424 2.341-43.835 3.593-66.905 3.593-23.075 0-45.482-1.249-66.91-3.593l-85.5 143.671c68.357 10.821 137.983 13.877 207.062 10.077zM137.115 605.778c58.415 38.596 128.33 59.164 196.768 71.928l84.933-142.715c-62.607-9.85-114.8-29.337-147.338-54.406l-164.367 102.081c9.335 8.589 19.592 16.236 30.005 23.112zM209.837 179.891c-19.558 6.681-37.83 14.072-54.487 22.136-11.176 5.308-21.52 11.065-31.094 16.936-2.006 1.227-3.955 2.474-5.888 3.729v59.808c7.763-5.853 16.081-11.553 24.918-17.039 11.211-6.962 23.262-13.555 35.966-19.846 9.791-4.825 20.019-9.367 30.584-13.725v-51.998zM209.837 265.161c-19.558 6.681-37.834 14.075-54.492 22.138-11.176 5.308-21.515 11.065-31.089 16.936-2.011 1.225-3.955 2.474-5.888 3.729v69.284c8.53-5.498 17.251-10.59 25.988-15.292 21.039-11.324 42.978-20.96 65.481-29.261v-67.534zM188.339 386.901c-34.017 15.568-68.369 34.907-93.356 63.352-12.064 13.727-29.564 39.52-25.973 59.694 1.747 9.809 4.515 26.375 10.733 38.803 3.046 5.538 6.575 10.767 10.454 15.736l162.842-101.132c-11.524-13.402-17.853-27.925-17.853-43.103 0-23.854 15.595-46.1 42.517-64.889-30.675 8.133-60.695 18.422-89.364 31.54zM317.29 152.506c-29.103 5.313-57.010 11.898-83.089 19.642v50.364c23.78-8.544 48.996-16.009 75.272-22.133 7.933-1.893 15.967-3.638 24.080-5.262l14.301-47.633c-10.304 1.553-20.504 3.238-30.564 5.023zM789.804 172.148c-26.079-7.746-53.987-14.328-83.094-19.642-10.055-1.784-20.26-3.47-30.564-5.025l14.301 47.633c8.115 1.624 16.15 3.369 24.083 5.262 26.281 6.124 51.497 13.592 75.277 22.133v-50.361zM789.804 257.418c-26.079-7.743-53.987-14.328-83.089-19.642-8.948-1.587-18.013-3.095-27.161-4.505-112.629 28.669-222.475 28.669-335.106 0-9.146 1.41-18.21 2.918-27.158 4.505-29.108 5.311-57.010 11.898-83.089 19.642v66.863c49.477-15.866 101.174-25.687 152.114-31.932 84.489-10.356 170.593-10.223 255.062 0.256 49.886 6.191 100.168 15.911 148.427 31.331v-66.518zM905.637 222.689c-1.93-1.254-3.879-2.501-5.893-3.729-9.574-5.87-19.913-11.625-31.089-16.936-16.66-8.061-34.936-15.452-54.487-22.136v51.998c10.56 4.36 20.795 8.899 30.584 13.725 12.702 6.289 24.756 12.884 35.961 19.846 8.843 5.486 17.16 11.189 24.923 17.039v-59.808zM905.637 307.964c-1.93-1.254-3.879-2.504-5.888-3.729-9.574-5.87-19.913-11.625-31.089-16.936-16.66-8.064-34.936-15.457-54.492-22.138v67.164c20.615 7.561 40.799 16.226 60.303 26.254 10.518 5.405 20.997 11.354 31.166 17.86v-68.475zM954.095 510.095c-0.357-37.083-33.613-72.1-66.151-93.894-42.29-28.324-90.887-47.145-140.753-60.207 26.372 18.654 41.622 40.671 41.622 64.258 0 15.176-6.324 29.702-17.848 43.103l162.317 100.804c11.662-15.654 19.4-33.556 20.812-54.065z" />
<glyph unicode="&#xe9c9;" glyph-name="web" d="M480 896c-265.096 0-480-214.904-480-480 0-265.098 214.904-480 480-480 265.098 0 480 214.902 480 480 0 265.096-214.902 480-480 480zM751.59 256c8.58 40.454 13.996 83.392 15.758 128h127.446c-3.336-44.196-13.624-87.114-30.68-128h-112.524zM208.41 576c-8.58-40.454-13.996-83.392-15.758-128h-127.444c3.336 44.194 13.622 87.114 30.678 128h112.524zM686.036 576c9.614-40.962 15.398-83.854 17.28-128h-191.316v128h174.036zM512 640v187.338c14.59-4.246 29.044-11.37 43.228-21.37 26.582-18.74 52.012-47.608 73.54-83.486 14.882-24.802 27.752-52.416 38.496-82.484h-155.264zM331.232 722.484c21.528 35.878 46.956 64.748 73.54 83.486 14.182 10 28.638 17.124 43.228 21.37v-187.34h-155.264c10.746 30.066 23.616 57.68 38.496 82.484zM448 576v-128h-191.314c1.88 44.146 7.666 87.038 17.278 128h174.036zM95.888 256c-17.056 40.886-27.342 83.804-30.678 128h127.444c1.762-44.608 7.178-87.546 15.758-128h-112.524zM256.686 384h191.314v-128h-174.036c-9.612 40.96-15.398 83.854-17.278 128zM448 192v-187.34c-14.588 4.246-29.044 11.372-43.228 21.37-26.584 18.74-52.014 47.61-73.54 83.486-14.882 24.804-27.75 52.418-38.498 82.484h155.266zM628.768 109.516c-21.528-35.876-46.958-64.746-73.54-83.486-14.184-9.998-28.638-17.124-43.228-21.37v187.34h155.266c-10.746-30.066-23.616-57.68-38.498-82.484zM512 256v128h191.314c-1.88-44.146-7.666-87.040-17.28-128h-174.034zM767.348 448c-1.762 44.608-7.178 87.546-15.758 128h112.524c17.056-40.886 27.344-83.806 30.68-128h-127.446zM830.658 640h-95.9c-18.638 58.762-44.376 110.294-75.316 151.428 42.536-20.34 81.058-47.616 114.714-81.272 21.48-21.478 40.362-44.938 56.502-70.156zM185.844 710.156c33.658 33.658 72.18 60.932 114.714 81.272-30.942-41.134-56.676-92.666-75.316-151.428h-95.898c16.138 25.218 35.022 48.678 56.5 70.156zM129.344 192h95.898c18.64-58.762 44.376-110.294 75.318-151.43-42.536 20.34-81.058 47.616-114.714 81.274-21.48 21.478-40.364 44.938-56.502 70.156zM774.156 121.844c-33.656-33.658-72.18-60.934-114.714-81.274 30.942 41.134 56.678 92.668 75.316 151.43h95.9c-16.14-25.218-35.022-48.678-56.502-70.156z" />
</font>
</defs>
</svg>
